<?xml version="1.0" standalone="no"?>
<!DOCTYPE svg PUBLIC "-//W3C//DTD SVG 20010904//EN"
 "http://www.w3.org/TR/2001/REC-SVG-20010904/DTD/svg10.dtd">
<svg version="1.0" xmlns="http://www.w3.org/2000/svg"
 width="300.000000pt" height="300.000000pt" viewBox="0 0 300.000000 300.000000"
 preserveAspectRatio="xMidYMid meet">
<metadata>
Created by potrace 1.14, written by Peter Selinger 2001-2017
</metadata>
<g transform="translate(0.000000,300.000000) scale(0.100000,-0.100000)"
fill="#000000" stroke="none">
<path d="M1365 2975 c-294 -77 -518 -206 -719 -413 -47 -48 -103 -112 -125
-142 -22 -30 -44 -60 -48 -66 -9 -11 -23 -35 -68 -114 -80 -141 -145 -336
-170 -509 -13 -93 -14 -376 -1 -431 3 -14 10 -50 16 -80 5 -30 18 -84 29 -120
163 -563 643 -981 1226 -1068 66 -9 395 -9 464 1 192 27 409 110 583 223 40
25 75 49 78 53 3 3 22 19 43 34 l37 28 0 120 0 121 -69 -64 c-521 -483 -1340
-465 -1836 38 -184 187 -297 398 -357 664 -17 74 -22 130 -22 255 -1 163 2
199 28 315 35 162 125 362 218 485 104 138 220 248 350 332 127 82 317 160
447 183 31 5 70 12 86 15 17 4 89 8 160 10 218 6 405 -35 615 -134 99 -46 243
-147 323 -224 26 -26 50 -47 52 -47 3 0 5 52 5 115 0 63 -3 115 -8 115 -4 0
-18 10 -32 23 -40 37 -174 125 -247 161 -101 51 -210 92 -315 120 -88 23 -108
24 -373 25 -263 0 -286 -2 -370 -24z"/>
<path d="M1695 2044 c-78 -16 -128 -38 -195 -85 -260 -182 -299 -590 -78 -819
68 -70 176 -133 252 -145 17 -3 45 -8 61 -11 126 -22 276 8 375 77 23 16 26
23 24 81 -1 34 -2 65 -3 67 -1 3 -11 -5 -23 -16 -38 -34 -108 -74 -162 -92
-78 -27 -205 -21 -280 11 -265 114 -346 465 -159 695 96 119 272 174 421 134
51 -14 144 -63 175 -91 11 -11 24 -20 27 -20 3 0 6 30 5 67 l-1 67 -61 33
c-107 59 -242 76 -378 47z"/>
</g>
</svg>
